# xmcd
#
# Track frame offsets: 
#        150
#        21132
#        39210
#        51275
#        72257
#
# Disc length: 1200 seconds
#
# Revision: 0
# Processed by: cddbd v1.5.2PL0 Copyright (c) Steve Scherf et al.
# Submitted via: ExactAudioCopyFreeDBPlugin 1.0
#
DISCID=3904ae05
DTITLE=倉木麻衣 - PUZZLE
DYEAR=2009
DGENRE=JPop
TTITLE0=Revive
TTITLE1=PUZZLE
TTITLE2=The ROSE~melody in the sky~ ”Live Rehearsal Session”
TTITLE3=Revive -instrumental-
TTITLE4=PUZZLE -instrumental-
EXTD=
EXTT0=
EXTT1=
EXTT2=
EXTT3=
EXTT4=
PLAYORDER=
